<svg height="335.959" width="859.916" xmlns="http://www.w3.org/2000/svg" xmlns:xlink="http://www.w3.org/1999/xlink"><mask id="a" fill="#fff"><path d="m0 0h5.684v5.6818h-5.684z" fill="#fff" fill-rule="evenodd"/></mask><mask id="b" fill="#fff"><path d="m0 0h5.684v5.6816h-5.684z" fill="#fff" fill-rule="evenodd"/></mask><mask id="c" fill="#fff"><path d="m0 0h5.6816v5.684h-5.6816z" fill="#fff" fill-rule="evenodd"/></mask><mask id="d" fill="#fff"><path d="m0 335.959h859.916v-335.959h-859.916z" fill="#fff" fill-rule="evenodd"/></mask><g fill="none" fill-rule="evenodd"><path d="m194.3487 162.8901c-.293-3.607-1.195-6.949-2.704-10.02-1.514-3.071-3.417-5.677-5.706-7.825-2.292-2.143-4.95-3.825-7.971-5.046-3.024-1.219-6.242-1.828-9.654-1.828-3.414 0-6.632.609-9.653 1.828-3.023 1.221-5.681 2.925-7.973 5.118-2.291 2.195-4.146 4.806-5.557 7.827-1.414 3.023-2.268 6.339-2.56 9.946zm-26.181 44.757c-5.753 0-11.02-1.048-15.797-3.143-4.778-2.097-8.874-4.95-12.286-8.557-3.414-3.607-6.071-7.827-7.971-12.652-1.903-4.827-2.853-9.922-2.853-15.284 0-5.364.95-10.436 2.853-15.213 1.9-4.778 4.581-8.972 8.043-12.578 3.46-3.607 7.582-6.46 12.36-8.559 4.777-2.095 10.042-3.143 15.797-3.143 5.752 0 10.993 1.074 15.724 3.217 4.728 2.145 8.751 4.998 12.067 8.557 3.314 3.56 5.872 7.704 7.679 12.432 1.804 4.731 2.706 9.631 2.706 14.701 0 1.072-.026 2.049-.074 2.925-.05.878-.122 1.562-.218 2.049h-63.335c.293 3.801 1.171 7.265 2.633 10.383 1.463 3.121 3.364 5.803 5.706 8.045 2.339 2.246 4.995 4 7.97 5.266 2.974 1.268 6.119 1.901 9.435 1.901 2.34 0 4.629-.315 6.875-.95 2.241-.634 4.336-1.486 6.289-2.56 1.948-1.071 3.679-2.388 5.192-3.95 1.51-1.557 2.655-3.312 3.437-5.265l11.116 3.072c-1.269 2.829-2.997 5.411-5.192 7.752-2.194 2.34-4.73 4.365-7.605 6.069-2.879 1.708-6.07 3.049-9.581 4.024-3.51.972-7.167 1.461-10.97 1.461zm69.7676-9.6528c4.581 0 8.85-.852 12.799-2.56 3.949-1.704 6.947-3.972 8.995-6.801 1.85-1.852 2.779-3.753 2.779-5.705v-11.261c-6.243-2.438-12.727-3.657-19.455-3.657-6.435 0-11.678 1.366-15.722 4.094-4.049 2.732-6.072 6.289-6.072 10.677 0 2.148.415 4.147 1.245 5.999.828 1.854 1.997 3.46 3.51 4.826 1.51 1.367 3.29 2.437 5.339 3.219 2.047.78 4.242 1.169 6.582 1.169m-3.364 9.653c-3.609 0-6.973-.609-10.092-1.828-3.124-1.217-5.828-2.899-8.118-5.046-2.293-2.143-4.095-4.656-5.413-7.533-1.317-2.874-1.974-6.018-1.974-9.434 0-3.51.779-6.702 2.341-9.579 1.558-2.877 3.777-5.341 6.654-7.388 2.875-2.049 6.289-3.656 10.239-4.827 3.949-1.169 8.263-1.755 12.945-1.755 3.705 0 7.459.343 11.263 1.025 3.803.682 7.167 1.608 10.092 2.779v-6.145c0-6.239-1.756-11.139-5.267-14.699-3.508-3.559-8.482-5.339-14.918-5.339-7.704 0-15.798 2.975-24.282 8.921l-4.24-8.336c9.848-6.63 19.746-9.946 29.691-9.946 10.042 0 17.869 2.683 23.477 8.045 5.605 5.364 8.41 12.922 8.41 22.671v31.155c0 3.025 1.365 4.585 4.095 4.681v11.117c-1.367.192-2.485.338-3.363.437-.878.098-1.807.146-2.779.146-2.538 0-4.559-.754-6.071-2.266-1.513-1.511-2.413-3.34-2.706-5.484l-.291-5.413c-3.416 4.584-7.73 8.071-12.947 10.457-5.216 2.389-10.8 3.584-16.746 3.584m85.2714 0c-6.142 0-12.191-.95-18.138-2.853-5.948-1.901-11.066-4.653-15.356-8.263l5.557-8.63c4.485 3.415 8.97 5.975 13.456 7.679 4.485 1.708 9.216 2.56 14.188 2.56 5.559 0 9.97-1.096 13.238-3.291 3.266-2.194 4.899-5.289 4.899-9.289 0-1.85-.438-3.436-1.317-4.753-.876-1.316-2.193-2.46-3.947-3.436-1.756-.975-4-1.851-6.73-2.635-2.73-.777-5.9-1.606-9.507-2.484-4.585-1.173-8.534-2.291-11.848-3.366-3.316-1.07-6.047-2.339-8.19-3.801-2.147-1.464-3.707-3.22-4.681-5.266-.976-2.049-1.461-4.584-1.461-7.607 0-3.803.753-7.191 2.267-10.164 1.509-2.975 3.583-5.461 6.215-7.462 2.632-1.997 5.727-3.508 9.288-4.533 3.559-1.024 7.386-1.535 11.481-1.535 5.754 0 11.117.926 16.091 2.778 4.972 1.855 9.164 4.293 12.578 7.314l-5.85 7.752c-3.217-2.826-6.826-4.947-10.824-6.363-3.999-1.414-8.095-2.121-12.287-2.121-4.679 0-8.655 1-11.921 2.999-3.268 1.999-4.9 5.192-4.9 9.579 0 1.756.315 3.22.953 4.389.632 1.17 1.68 2.193 3.143 3.071 1.464.878 3.339 1.66 5.632 2.342 2.289.683 5.046 1.415 8.263 2.193 5.071 1.17 9.483 2.365 13.238 3.584 3.753 1.221 6.875 2.659 9.361 4.315 2.486 1.66 4.338 3.609 5.559 5.849 1.217 2.246 1.826 4.975 1.826 8.192 0 7.119-2.73 12.777-8.189 16.967-5.463 4.194-12.825 6.289-22.087 6.289m82.0546-5.2643c-.782.391-1.806.854-3.073 1.389-1.267.538-2.705 1.075-4.314 1.608-1.609.537-3.365.975-5.265 1.317-1.901.341-3.878.511-5.925.511-4.681 0-8.726-1.291-12.141-3.875-3.412-2.584-5.118-6.606-5.118-12.066v-51.342h-10.385v-10.092h10.385v-25.451h12.871v25.451h17.113v10.092h-17.113v47.392c.194 2.828 1.121 4.878 2.779 6.143 1.658 1.269 3.606 1.902 5.852 1.902 2.534 0 4.85-.415 6.947-1.243 2.096-.828 3.534-1.485 4.314-1.976zm65.671-39.4929c-.293-3.607-1.195-6.949-2.707-10.02-1.511-3.071-3.414-5.677-5.703-7.825-2.293-2.143-4.95-3.825-7.973-5.046-3.023-1.219-6.241-1.828-9.653-1.828-3.414 0-6.632.609-9.654 1.828-3.023 1.221-5.681 2.925-7.97 5.118-2.292 2.195-4.147 4.806-5.56 7.827-1.413 3.023-2.265 6.339-2.56 9.946zm-26.183 44.757c-5.754 0-11.018-1.048-15.795-3.143-4.78-2.097-8.874-4.95-12.286-8.557-3.416-3.607-6.071-7.827-7.973-12.652-1.901-4.827-2.851-9.922-2.851-15.284 0-5.364.95-10.436 2.851-15.213 1.902-4.778 4.583-8.972 8.045-12.578 3.461-3.607 7.58-6.46 12.36-8.559 4.775-2.095 10.042-3.143 15.796-3.143 5.753 0 10.994 1.074 15.723 3.217 4.73 2.145 8.751 4.998 12.067 8.557 3.314 3.56 5.874 7.704 7.678 12.432 1.805 4.731 2.707 9.631 2.707 14.701 0 1.072-.026 2.049-.072 2.925-.052.878-.125 1.562-.221 2.049h-63.331c.292 3.801 1.168 7.265 2.632 10.383 1.461 3.121 3.364 5.803 5.703 8.045 2.34 2.246 4.997 4 7.972 5.266 2.975 1.268 6.118 1.901 9.434 1.901 2.34 0 4.631-.315 6.875-.95 2.243-.634 4.338-1.486 6.289-2.56 1.95-1.071 3.681-2.388 5.193-3.95 1.511-1.557 2.656-3.312 3.438-5.265l11.116 3.072c-1.269 2.829-2.999 5.411-5.192 7.752-2.194 2.34-4.731 4.365-7.606 6.069-2.877 1.708-6.071 3.049-9.581 4.024-3.511.972-7.167 1.461-10.971 1.461zm87.9066-66.5506c-6.438.196-12.117 1.852-17.041 4.972-4.924 3.123-8.41 7.46-10.459 13.019v47.099h-12.871v-76.353h11.993v17.699c2.634-5.267 6.095-9.532 10.387-12.799 4.29-3.266 8.871-5.094 13.749-5.486h2.486c.681 0 1.265.05 1.756.147zm35.6872 66.5508c-6.143 0-12.192-.95-18.138-2.853-5.95-1.901-11.068-4.653-15.358-8.263l5.559-8.63c4.483 3.415 8.97 5.975 13.456 7.679 4.483 1.708 9.214 2.56 14.188 2.56 5.557 0 9.97-1.096 13.238-3.291 3.266-2.194 4.899-5.289 4.899-9.289 0-1.85-.439-3.436-1.317-4.753-.878-1.316-2.195-2.46-3.949-3.436-1.756-.975-4-1.851-6.728-2.635-2.731-.777-5.9-1.606-9.507-2.484-4.585-1.173-8.535-2.291-11.848-3.366-3.316-1.07-6.049-2.339-8.19-3.801-2.145-1.464-3.709-3.22-4.681-5.266-.976-2.049-1.464-4.584-1.464-7.607 0-3.803.754-7.191 2.268-10.164 1.509-2.975 3.582-5.461 6.217-7.462 2.632-1.997 5.727-3.508 9.286-4.533 3.56-1.024 7.39-1.535 11.483-1.535 5.752 0 11.117.926 16.091 2.778 4.972 1.855 9.164 4.293 12.576 7.314l-5.85 7.752c-3.218-2.826-6.824-4.947-10.824-6.363-4-1.414-8.093-2.121-12.285-2.121-4.679 0-8.655 1-11.921 2.999-3.27 1.999-4.899 5.192-4.899 9.579 0 1.756.314 3.22.95 4.389.633 1.17 1.682 2.193 3.145 3.071 1.462.878 3.338 1.66 5.632 2.342 2.289.683 5.044 1.415 8.263 2.193 5.068 1.17 9.483 2.365 13.236 3.584 3.754 1.221 6.875 2.659 9.363 4.315 2.486 1.66 4.338 3.609 5.557 5.849 1.219 2.246 1.828 4.975 1.828 8.192 0 7.119-2.73 12.777-8.189 16.967-5.463 4.194-12.825 6.289-22.087 6.289m99.6051-44.7572c-.293-3.607-1.195-6.949-2.707-10.02-1.511-3.071-3.414-5.677-5.703-7.825-2.293-2.143-4.95-3.825-7.973-5.046-3.023-1.219-6.241-1.828-9.653-1.828-3.414 0-6.632.609-9.654 1.828-3.023 1.221-5.681 2.925-7.97 5.118-2.294 2.195-4.147 4.806-5.56 7.827-1.413 3.023-2.265 6.339-2.56 9.946zm-26.183 44.757c-5.754 0-11.018-1.048-15.795-3.143-4.78-2.097-8.874-4.95-12.286-8.557-3.416-3.607-6.071-7.827-7.973-12.652-1.901-4.827-2.851-9.922-2.851-15.284 0-5.364.95-10.436 2.851-15.213 1.902-4.778 4.583-8.972 8.045-12.578 3.461-3.607 7.58-6.46 12.359-8.559 4.776-2.095 10.043-3.143 15.797-3.143 5.753 0 10.994 1.074 15.723 3.217 4.73 2.145 8.751 4.998 12.067 8.557 3.314 3.56 5.874 7.704 7.678 12.432 1.805 4.731 2.707 9.631 2.707 14.701 0 1.072-.026 2.049-.072 2.925-.052.878-.125 1.562-.221 2.049h-63.331c.29 3.801 1.168 7.265 2.632 10.383 1.461 3.121 3.364 5.803 5.704 8.045 2.339 2.246 4.996 4 7.971 5.266 2.975 1.268 6.118 1.901 9.434 1.901 2.34 0 4.631-.315 6.875-.95 2.243-.634 4.336-1.486 6.289-2.56 1.95-1.071 3.681-2.388 5.193-3.95 1.511-1.557 2.656-3.312 3.438-5.265l11.116 3.072c-1.269 2.829-2.999 5.411-5.192 7.752-2.194 2.34-4.732 4.365-7.606 6.069-2.877 1.708-6.071 3.049-9.582 4.024-3.51.972-7.166 1.461-10.97 1.461zm69.7663-9.6528c4.585 0 8.851-.852 12.799-2.56 3.951-1.704 6.948-3.972 8.995-6.801 1.853-1.852 2.781-3.753 2.781-5.705v-11.261c-6.241-2.438-12.726-3.657-19.455-3.657-6.435 0-11.678 1.366-15.724 4.094-4.045 2.732-6.07 6.289-6.07 10.677 0 2.148.415 4.147 1.245 5.999.826 1.854 1.997 3.46 3.508 4.826 1.512 1.367 3.292 2.437 5.341 3.219 2.049.78 4.24 1.169 6.58 1.169m-3.362 9.653c-3.609 0-6.975-.609-10.092-1.828-3.122-1.217-5.828-2.899-8.118-5.046-2.293-2.143-4.097-4.656-5.412-7.533-1.316-2.874-1.975-6.018-1.975-9.434 0-3.51.78-6.702 2.339-9.579 1.56-2.877 3.779-5.341 6.656-7.388 2.875-2.049 6.291-3.656 10.239-4.827 3.949-1.169 8.263-1.755 12.945-1.755 3.705 0 7.46.343 11.261 1.025 3.803.682 7.169 1.608 10.094 2.779v-6.145c0-6.239-1.756-11.139-5.265-14.699-3.512-3.559-8.486-5.339-14.922-5.339-7.702 0-15.795 2.975-24.277 8.921l-4.243-8.336c9.848-6.63 19.746-9.946 29.694-9.946 10.039 0 17.864 2.683 23.474 8.045 5.607 5.364 8.41 12.922 8.41 22.671v31.155c0 3.025 1.365 4.585 4.096 4.681v11.117c-1.368.192-2.486.338-3.365.437-.877.098-1.804.146-2.778.146-2.538 0-4.561-.754-6.071-2.266-1.513-1.511-2.413-3.34-2.706-5.484l-.293-5.413c-3.414 4.584-7.729 8.071-12.945 10.457-5.216 2.389-10.8 3.584-16.746 3.584m55.8708-108.2374h12.87v87.029c0 2.831.754 5.047 2.268 6.656 1.51 1.608 3.631 2.414 6.362 2.414 1.074 0 2.341-.169 3.802-.512 1.464-.341 2.829-.756 4.096-1.245l2.049 10.387c-2.147.876-4.681 1.608-7.606 2.193-2.925.586-5.511.879-7.753.879-4.972 0-8.899-1.414-11.774-4.244-2.879-2.825-4.314-6.775-4.314-11.847zm68.3052 108.2374c-6.145 0-12.192-.95-18.138-2.853-5.95-1.901-11.068-4.653-15.358-8.263l5.559-8.63c4.482 3.415 8.97 5.975 13.456 7.679 4.483 1.708 9.214 2.56 14.188 2.56 5.557 0 9.97-1.096 13.238-3.291 3.266-2.194 4.898-5.289 4.898-9.289 0-1.85-.437-3.436-1.316-4.753-.878-1.316-2.195-2.46-3.949-3.436-1.756-.975-3.999-1.851-6.728-2.635-2.73-.777-5.9-1.606-9.507-2.484-4.585-1.173-8.535-2.291-11.848-3.366-3.316-1.07-6.049-2.339-8.19-3.801-2.147-1.464-3.709-3.22-4.681-5.266-.976-2.049-1.464-4.584-1.464-7.607 0-3.803.754-7.191 2.268-10.164 1.51-2.975 3.582-5.461 6.217-7.462 2.632-1.997 5.727-3.508 9.286-4.533 3.56-1.024 7.387-1.535 11.483-1.535 5.753 0 11.117.926 16.091 2.778 4.972 1.855 9.164 4.293 12.576 7.314l-5.85 7.752c-3.218-2.826-6.826-4.947-10.824-6.363-4-1.414-8.093-2.121-12.285-2.121-4.679 0-8.655 1-11.921 2.999-3.27 1.999-4.899 5.192-4.899 9.579 0 1.756.314 3.22.95 4.389.633 1.17 1.682 2.193 3.145 3.071 1.462.878 3.338 1.66 5.632 2.342 2.289.683 5.044 1.415 8.263 2.193 5.068 1.17 9.483 2.365 13.236 3.584 3.754 1.221 6.875 2.659 9.363 4.315 2.486 1.66 4.336 3.609 5.557 5.849 1.217 2.246 1.828 4.975 1.828 8.192 0 7.119-2.73 12.777-8.189 16.967-5.463 4.194-12.825 6.289-22.087 6.289" fill="#cf4b04"/><g fill="#ffa300"><path d="m179.346 89.7033c0 6.277-5.088 11.367-11.367 11.367-6.277 0-11.366-5.09-11.366-11.367s5.089-11.367 11.366-11.367c6.279 0 11.367 5.09 11.367 11.367m-2.8419-34.6373c0 4.708-3.817 8.524-8.524 8.524-4.71 0-8.525-3.816-8.525-8.524 0-4.707 3.815-8.524 8.525-8.524 4.707 0 8.524 3.817 8.524 8.524m-2.8416-28.9542c0 3.14-2.544 5.684-5.684 5.684-3.137 0-5.683-2.544-5.683-5.684s2.546-5.684 5.683-5.684c3.14 0 5.684 2.544 5.684 5.684"/><path d="m5.684 2.8408c0 1.57-1.273 2.841-2.841 2.841-1.57 0-2.843-1.271-2.843-2.841s1.273-2.841 2.843-2.841c1.568 0 2.841 1.271 2.841 2.841" mask="url(#a)" transform="translate(165.1369)"/><path d="m179.346 246.2559c0-6.277-5.088-11.367-11.367-11.367-6.277 0-11.366 5.09-11.366 11.367s5.089 11.367 11.366 11.367c6.279 0 11.367-5.09 11.367-11.367m-2.8419 34.6374c0-4.709-3.817-8.524-8.524-8.524-4.71 0-8.525 3.815-8.525 8.524 0 4.708 3.815 8.524 8.525 8.524 4.707 0 8.524-3.816 8.524-8.524m-2.8416 28.9543c0-3.14-2.544-5.684-5.684-5.684-3.137 0-5.683 2.544-5.683 5.684s2.546 5.684 5.683 5.684c3.14 0 5.684-2.544 5.684-5.684"/><path d="m5.684 2.841c0-1.57-1.273-2.841-2.841-2.841-1.57 0-2.843 1.271-2.843 2.841s1.273 2.841 2.843 2.841c1.568 0 2.841-1.271 2.841-2.841" mask="url(#b)" transform="translate(165.1369 330.2774)"/><path d="m132.6452 60.3988c1.802 4.35-.265 9.336-4.613 11.139-4.35 1.802-9.336-.265-11.139-4.616-1.802-4.348.263-9.336 4.613-11.136 4.351-1.802 9.337.263 11.139 4.613m-13.7056-25.6629c1.201 2.899-.176 6.225-3.076 7.425-2.9 1.201-6.225-.175-7.425-3.075-1.201-2.9.176-6.225 3.075-7.426 2.901-1.201 6.225.177 7.426 3.076m100.1259 234.3001c-1.802-4.35-6.788-6.415-11.139-4.613-4.35 1.8-6.415 6.788-4.613 11.139 1.803 4.348 6.789 6.415 11.139 4.613 4.348-1.803 6.415-6.789 4.613-11.139m8.4549 27.8374c-1.201-2.899-4.525-4.276-7.426-3.076-2.899 1.201-4.276 4.526-3.075 7.426 1.2 2.9 4.525 4.276 7.425 3.076 2.9-1.201 4.277-4.527 3.076-7.426m-106.8533-192.2808c4.438 4.439 4.438 11.636 0 16.075-4.439 4.438-11.636 4.438-16.075 0-4.438-4.439-4.438-11.636 0-16.075 4.439-4.439 11.636-4.439 16.075 0m-26.502-22.4831c3.33 3.33 3.33 8.727 0 12.057-3.33 3.328-8.727 3.328-12.057 0-3.328-3.33-3.328-8.727 0-12.057 3.33-3.33 8.727-3.33 12.057 0m-22.483-18.4642c2.22 2.219 2.22 5.818 0 8.037-2.219 2.219-5.818 2.219-8.037 0-2.22-2.219-2.22-5.818 0-8.037 2.219-2.22 5.818-2.22 8.037 0m-18.4641-14.4455c1.109 1.109 1.109 2.909 0 4.018-1.11 1.11-2.909 1.11-4.02 0-1.108-1.109-1.108-2.909 0-4.018 1.111-1.111 2.91-1.111 4.02 0m13.705 67.6936c4.35 1.802 6.415 6.788 4.613 11.139-1.8 4.35-6.788 6.415-11.139 4.613-4.348-1.803-6.415-6.788-4.613-11.139 1.803-4.348 6.789-6.415 11.139-4.613m-27.8375-8.4548c2.899 1.201 4.276 4.525 3.076 7.426-1.201 2.899-4.526 4.276-7.426 3.075-2.9-1.2-4.276-4.525-3.076-7.425 1.201-2.9 4.527-4.277 7.426-3.076m50.6175 48.1742c6.277 0 11.367 5.088 11.367 11.367 0 6.277-5.09 11.366-11.367 11.366s-11.367-5.089-11.367-11.366c0-6.279 5.09-11.367 11.367-11.367m-34.6374 2.8418c4.708 0 8.524 3.817 8.524 8.524 0 4.71-3.816 8.527-8.524 8.527s-8.524-3.817-8.524-8.527c0-4.707 3.816-8.524 8.524-8.524m-28.9542 2.8418c3.14 0 5.684 2.544 5.684 5.684 0 3.137-2.544 5.683-5.684 5.683s-5.684-2.546-5.684-5.683c0-3.14 2.544-5.684 5.684-5.684"/><path d="m2.8406 0c1.57 0 2.841 1.273 2.841 2.841 0 1.57-1.271 2.843-2.841 2.843s-2.841-1.273-2.841-2.843c0-1.568 1.271-2.841 2.841-2.841" mask="url(#c)" transform="translate(0 165.1381)"/><path d="m60.3981 203.3138c4.35-1.802 9.336.265 11.139 4.613 1.802 4.35-.265 9.336-4.613 11.139-4.351 1.802-9.339-.263-11.139-4.613-1.802-4.351.263-9.337 4.613-11.139m-25.6626 13.7055c2.899-1.201 6.225.176 7.426 3.076 1.2 2.9-.176 6.225-3.076 7.426-2.9 1.2-6.225-.177-7.425-3.076-1.201-2.901.176-6.225 3.075-7.426m69.8567-1.7274c4.438-4.439 11.636-4.439 16.075 0 4.438 4.439 4.438 11.636 0 16.075-4.439 4.438-11.637 4.438-16.075 0-4.439-4.439-4.439-11.636 0-16.075m-22.4831 26.5018c3.33-3.33 8.727-3.33 12.057 0 3.328 3.33 3.328 8.727 0 12.057-3.33 3.328-8.727 3.328-12.057 0-3.33-3.33-3.33-8.727 0-12.057m-18.4644 22.483c2.22-2.219 5.818-2.219 8.037 0 2.22 2.219 2.22 5.818 0 8.037-2.219 2.22-5.817 2.22-8.037 0-2.219-2.219-2.219-5.818 0-8.037m-14.4454 18.4641c1.109-1.109 2.909-1.109 4.02 0 1.108 1.111 1.108 2.909 0 4.02-1.111 1.108-2.911 1.108-4.02 0-1.11-1.111-1.11-2.909 0-4.02m67.6937-13.7048c1.802-4.35 6.788-6.415 11.139-4.613 4.35 1.8 6.415 6.788 4.613 11.139-1.803 4.348-6.789 6.415-11.139 4.613-4.348-1.803-6.415-6.789-4.613-11.139m-8.4548 27.8374c1.201-2.899 4.525-4.276 7.426-3.076 2.899 1.201 4.276 4.526 3.075 7.426s-4.525 4.276-7.426 3.076c-2.899-1.201-4.276-4.527-3.075-7.426m94.8751-236.4746c-1.802 4.35.265 9.336 4.613 11.139 4.35 1.802 9.339-.265 11.139-4.616 1.802-4.348-.263-9.336-4.613-11.136-4.351-1.802-9.337.263-11.139 4.613m13.7057-25.6629c-1.201 2.899.176 6.225 3.076 7.425 2.9 1.201 6.224-.175 7.425-3.075s-.176-6.225-3.075-7.426c-2.901-1.201-6.225.177-7.426 3.076"/></g><path d="m355.2479 262.9898c0-3.562.626-7.11 1.879-10.646 1.252-3.535 3.089-6.708 5.511-9.519 2.421-2.811 5.385-5.08 8.892-6.806 3.507-1.724 7.487-2.589 11.941-2.589 5.288 0 9.824 1.199 13.61 3.591 3.785 2.394 6.597 5.511 8.434 9.353l-5.928 3.84c-.892-1.891-1.963-3.478-3.215-4.759-1.253-1.28-2.617-2.31-4.092-3.089s-2.993-1.336-4.551-1.671c-1.559-.334-3.089-.501-4.592-.501-3.285 0-6.194.683-8.726 2.046-2.534 1.364-4.663 3.146-6.388 5.345-1.726 2.199-3.02 4.676-3.882 7.43-.865 2.756-1.294 5.526-1.294 8.309 0 3.118.513 6.083 1.544 8.893 1.03 2.811 2.463 5.301 4.3 7.473 1.837 2.171 4.008 3.897 6.513 5.177 2.505 1.281 5.232 1.921 8.184 1.921 1.557 0 3.158-.195 4.8-.585 1.642-.389 3.215-1.015 4.718-1.878s2.908-1.949 4.217-3.258c1.308-1.306 2.38-2.881 3.215-4.717l6.263 3.424c-.948 2.227-2.269 4.189-3.967 5.887s-3.619 3.131-5.761 4.3c-2.144 1.169-4.413 2.059-6.806 2.672-2.394.612-4.732.919-7.013.919-4.065 0-7.795-.891-11.19-2.672-3.396-1.782-6.333-4.106-8.809-6.973-2.478-2.867-4.398-6.123-5.761-9.77-1.365-3.645-2.046-7.361-2.046-11.147m92.1836 5.3437c-.167-2.059-.683-3.966-1.545-5.72-.864-1.754-1.949-3.242-3.257-4.467-1.308-1.224-2.826-2.184-4.551-2.88s-3.563-1.044-5.51-1.044c-1.949 0-3.786.348-5.511 1.044-1.727.696-3.244 1.67-4.551 2.921-1.308 1.253-2.367 2.743-3.174 4.468-.807 1.726-1.294 3.619-1.461 5.678zm-14.947 25.552c-3.285 0-6.291-.6-9.018-1.796-2.728-1.196-5.066-2.825-7.014-4.885-1.95-2.059-3.465-4.468-4.551-7.223-1.085-2.754-1.628-5.663-1.628-8.725 0-3.061.543-5.956 1.628-8.684 1.086-2.727 2.616-5.121 4.593-7.181 1.975-2.059 4.328-3.688 7.055-4.885 2.728-1.196 5.734-1.795 9.019-1.795 3.284 0 6.275.613 8.976 1.837 2.699 1.225 4.995 2.852 6.889 4.885 1.892 2.032 3.352 4.397 4.384 7.096 1.029 2.701 1.544 5.498 1.544 8.393 0 .613-.014 1.169-.041 1.67-.03.501-.071.89-.126 1.169h-36.156c.167 2.171.668 4.147 1.503 5.928.835 1.783 1.921 3.313 3.257 4.592 1.336 1.281 2.852 2.283 4.551 3.006 1.697.725 3.492 1.086 5.386 1.086 1.336 0 2.643-.18 3.925-.543 1.279-.361 2.475-.848 3.589-1.461 1.114-.611 2.101-1.363 2.965-2.254.863-.89 1.516-1.892 1.962-3.006l6.346 1.753c-.724 1.616-1.712 3.089-2.964 4.425-1.253 1.337-2.701 2.492-4.342 3.466-1.642.975-3.466 1.741-5.47 2.296-2.003.556-4.091.836-6.262.836zm63.2927-.8362h-7.348v-24.382c0-4.676-.71-8.071-2.129-10.186-1.419-2.116-3.578-3.174-6.471-3.174-1.503 0-3.006.293-4.509.877-1.503.585-2.923 1.378-4.259 2.38s-2.505 2.2-3.507 3.59c-1.002 1.393-1.754 2.922-2.255 4.592v26.303h-7.347v-43.587h6.679v9.353c1.725-3.061 4.217-5.512 7.474-7.348 3.256-1.838 6.805-2.756 10.647-2.756 2.504 0 4.591.459 6.261 1.377 1.671.919 3.007 2.2 4.009 3.842s1.712 3.577 2.129 5.803c.418 2.227.626 4.648.626 7.264zm30.2265-2.1699c-.446.223-1.03.487-1.754.793-.724.307-1.544.613-2.463.918-.919.307-1.921.557-3.006.752-1.086.194-2.213.292-3.381.292-2.672 0-4.983-.737-6.931-2.213-1.949-1.474-2.923-3.771-2.923-6.889v-29.308h-5.928v-5.762h5.928v-14.528h7.349v14.528h9.769v5.762h-9.769v27.053c.11 1.616.638 2.786 1.586 3.508.946.724 2.059 1.085 3.34 1.085 1.447 0 2.769-.235 3.966-.71 1.196-.471 2.017-.847 2.463-1.127zm29.8926-34.9873c-3.674.112-6.917 1.058-9.728 2.839-2.811 1.782-4.801 4.259-5.97 7.432v26.886h-7.348v-43.587h6.847v10.104c1.503-3.006 3.478-5.441 5.928-7.306s5.065-2.908 7.849-3.132h1.42c.389 0 .723.029 1.002.083zm17.0332 32.4815c2.616 0 5.052-.486 7.307-1.461 2.254-.973 3.965-2.268 5.134-3.883 1.057-1.056 1.587-2.142 1.587-3.256v-6.429c-3.563-1.391-7.264-2.088-11.105-2.088-3.675 0-6.667.78-8.977 2.338s-3.465 3.59-3.465 6.095c0 1.225.236 2.368.709 3.424.473 1.058 1.141 1.977 2.004 2.755.863.78 1.879 1.392 3.048 1.837 1.169.446 2.422.668 3.758.668m-1.921 5.512c-2.059 0-3.98-.349-5.761-1.045-1.782-.696-3.327-1.654-4.634-2.88-1.309-1.224-2.338-2.657-3.09-4.3-.751-1.642-1.127-3.437-1.127-5.387 0-2.004.445-3.826 1.336-5.468.889-1.642 2.157-3.048 3.8-4.217 1.64-1.169 3.589-2.088 5.844-2.756s4.718-1.002 7.39-1.002c2.115 0 4.259.195 6.43.584 2.171.391 4.091.919 5.761 1.587v-3.507c0-3.562-1.002-6.359-3.006-8.392-2.004-2.032-4.843-3.047-8.517-3.047-4.399 0-9.018 1.699-13.861 5.093l-2.421-4.759c5.622-3.786 11.272-5.678 16.95-5.678 5.733 0 10.2 1.531 13.402 4.592 3.2 3.062 4.801 7.377 4.801 12.943v17.785c0 1.727.779 2.617 2.338 2.672v6.346c-.78.111-1.419.195-1.92.251-.501.054-1.031.083-1.587.083-1.448 0-2.603-.43-3.465-1.294-.864-.862-1.378-1.905-1.545-3.131l-.167-3.09c-1.949 2.617-4.413 4.607-7.389 5.97-2.979 1.364-6.166 2.047-9.562 2.047m31.8966-61.7913h7.348v49.684c0 1.615.43 2.88 1.295 3.798.862.918 2.072 1.377 3.631 1.377.613 0 1.336-.095 2.171-.291.835-.195 1.615-.431 2.338-.711l1.169 5.93c-1.224.5-2.672.918-4.342 1.252s-3.145.501-4.425.501c-2.839 0-5.081-.806-6.722-2.421-1.643-1.614-2.463-3.869-2.463-6.764z" fill="#004473"/><path d="m644.738 293.049h7.515v-59.285h-7.515zm16.9503-60.9547h7.348v49.684c0 1.615.43 2.88 1.295 3.798.862.918 2.072 1.377 3.631 1.377.613 0 1.336-.095 2.171-.291.835-.195 1.615-.431 2.338-.711l1.169 5.93c-1.224.5-2.672.918-4.342 1.252s-3.145.501-4.425.501c-2.839 0-5.081-.806-6.722-2.421-1.643-1.614-2.463-3.869-2.463-6.764zm20.54 0h7.348v49.684c0 1.615.43 2.88 1.295 3.798.862.918 2.072 1.377 3.631 1.377.613 0 1.336-.095 2.171-.291.835-.195 1.615-.431 2.338-.711l1.169 5.93c-1.224.5-2.672.918-4.342 1.252s-3.145.501-4.425.501c-2.839 0-5.081-.806-6.722-2.421-1.643-1.614-2.463-3.869-2.463-6.764zm22.0437 60.9547h7.348v-43.587h-7.348zm0-51.769h7.348v-9.186h-7.348zm53.2727 51.7693h-7.348v-24.382c0-4.676-.71-8.071-2.129-10.186-1.419-2.116-3.578-3.174-6.471-3.174-1.503 0-3.006.293-4.509.877-1.503.585-2.923 1.378-4.259 2.38s-2.505 2.2-3.507 3.59c-1.002 1.393-1.754 2.922-2.255 4.592v26.303h-7.347v-43.587h6.679v9.353c1.725-3.061 4.217-5.512 7.474-7.348 3.256-1.838 6.805-2.756 10.647-2.756 2.504 0 4.591.459 6.261 1.377 1.671.919 3.007 2.2 4.009 3.842s1.712 3.577 2.129 5.803c.418 2.227.626 4.648.626 7.264zm11.0225-21.6259c0 2.283.375 4.397 1.127 6.346.751 1.949 1.781 3.647 3.09 5.093 1.306 1.449 2.839 2.589 4.592 3.423 1.754.836 3.632 1.253 5.636 1.253s3.883-.417 5.636-1.253c1.754-.834 3.299-1.989 4.635-3.465 1.336-1.474 2.38-3.2 3.131-5.176.752-1.976 1.128-4.105 1.128-6.388 0-2.227-.376-4.328-1.128-6.305-.751-1.974-1.795-3.701-3.131-5.176-1.336-1.474-2.881-2.63-4.635-3.466-1.753-.834-3.632-1.252-5.636-1.252s-3.882.431-5.636 1.295c-1.753.863-3.286 2.032-4.592 3.506-1.309 1.476-2.339 3.202-3.09 5.177-.752 1.977-1.127 4.106-1.127 6.388m14.445 22.462c-3.285 0-6.277-.613-8.976-1.838-2.7-1.223-5.01-2.866-6.931-4.926-1.92-2.058-3.41-4.453-4.467-7.181-1.058-2.727-1.587-5.594-1.587-8.6 0-3.062.543-5.957 1.628-8.685 1.086-2.727 2.589-5.121 4.51-7.18 1.92-2.059 4.23-3.701 6.931-4.927 2.699-1.224 5.663-1.837 8.892-1.837 3.228 0 6.206.613 8.935 1.837 2.726 1.226 5.052 2.868 6.972 4.927s3.423 4.453 4.509 7.18c1.085 2.728 1.628 5.623 1.628 8.685 0 3.006-.529 5.873-1.587 8.6-1.057 2.728-2.56 5.123-4.508 7.181-1.95 2.06-4.273 3.703-6.972 4.926-2.701 1.225-5.693 1.838-8.977 1.838m26.8038-.8364h7.348v-43.587h-7.348zm0-51.769h7.348v-9.186h-7.348zm32.8147 52.6053c-3.507 0-6.959-.543-10.354-1.629-3.396-1.086-6.319-2.657-8.767-4.718l3.173-4.926c2.559 1.949 5.121 3.411 7.681 4.384 2.56.975 5.261 1.461 8.1 1.461 3.173 0 5.691-.627 7.557-1.879 1.864-1.252 2.798-3.019 2.798-5.302 0-1.057-.251-1.962-.752-2.713-.501-.752-1.252-1.407-2.255-1.963-1.002-.556-2.284-1.057-3.841-1.503-1.559-.444-3.368-.919-5.427-1.419-2.618-.668-4.872-1.308-6.764-1.921-1.893-.612-3.452-1.336-4.676-2.171-1.225-.836-2.117-1.838-2.672-3.006-.557-1.17-.835-2.616-.835-4.341 0-2.172.43-4.106 1.295-5.804.862-1.698 2.045-3.117 3.548-4.259 1.503-1.141 3.27-2.004 5.302-2.588 2.032-.585 4.217-.877 6.555-.877 3.284 0 6.346.529 9.186 1.586 2.838 1.059 5.231 2.451 7.18 4.176l-3.34 4.425c-1.837-1.615-3.897-2.826-6.179-3.632-2.284-.807-4.621-1.211-7.014-1.211-2.672 0-4.94.571-6.806 1.712-1.865 1.141-2.797 2.964-2.797 5.47 0 1.002.18 1.836.543 2.503.362.668.96 1.253 1.795 1.754s1.907.948 3.215 1.336c1.308.391 2.881.808 4.718 1.252 2.894.668 5.413 1.352 7.557 2.047 2.142.696 3.924 1.518 5.344 2.463 1.419.947 2.476 2.061 3.173 3.34.696 1.281 1.044 2.839 1.044 4.676 0 4.064-1.559 7.293-4.677 9.686-3.118 2.394-7.32 3.591-12.608 3.591" fill="#004473" mask="url(#d)"/></g></svg>